<svg width="60" height="60" viewBox="0 0 60 60" fill="none" xmlns="http://www.w3.org/2000/svg">
<path d="M51.6188 30.9938L34.7438 47.8688C34.4772 48.1172 34.1246 48.2525 33.7603 48.246C33.396 48.2396 33.0484 48.092 32.7907 47.8344C32.5331 47.5767 32.3855 47.2291 32.379 46.8648C32.3726 46.5005 32.5079 46.1479 32.7563 45.8813L47.2289 31.4063H9.375C9.00204 31.4063 8.64435 31.2582 8.38063 30.9945C8.11691 30.7307 7.96875 30.373 7.96875 30.0001C7.96875 29.6271 8.11691 29.2694 8.38063 29.0057C8.64435 28.742 9.00204 28.5938 9.375 28.5938H47.2289L32.7563 14.1188C32.5079 13.8523 32.3726 13.4997 32.379 13.1353C32.3855 12.771 32.5331 12.4234 32.7907 12.1658C33.0484 11.9081 33.396 11.7606 33.7603 11.7541C34.1246 11.7477 34.4772 11.8829 34.7438 12.1313L51.6188 29.0063C51.8821 29.27 52.03 29.6274 52.03 30.0001C52.03 30.3727 51.8821 30.7302 51.6188 30.9938Z" fill="#999999"/>
</svg>
