<svg width="176" height="51" viewBox="0 0 176 51" fill="none" xmlns="http://www.w3.org/2000/svg">
<path d="M58.7874 32.4545V12.6202H55.5806V32.4545H58.7874Z" fill="#ADADAD"/>
<path d="M60.7502 25.8431C60.7502 29.8953 63.4313 32.7745 67.5056 32.7745C71.5799 32.7745 74.261 29.8953 74.261 25.8431C74.261 21.7909 71.5799 18.9117 67.5056 18.9117C63.4313 18.9117 60.7502 21.7909 60.7502 25.8431ZM63.9833 25.8431C63.9833 23.4704 65.3765 21.8176 67.5056 21.8176C69.6348 21.8176 71.0279 23.4704 71.0279 25.8431C71.0279 28.1891 69.6348 29.8686 67.5056 29.8686C65.3765 29.8686 63.9833 28.1891 63.9833 25.8431Z" fill="#ADADAD"/>
<path d="M75.3397 25.5765C75.3397 29.4154 77.7842 32.1879 81.4379 32.1879C83.3305 32.1879 84.9602 31.4148 85.7751 30.1352V32.3746C85.7751 34.5339 84.4345 35.9735 82.2002 35.9735C80.2025 35.9735 78.8357 34.9872 78.6517 33.2543H75.4185C75.8391 36.6933 78.4414 38.9327 82.0162 38.9327C86.2219 38.9327 88.9031 36.1335 88.9031 31.7881V19.2849H86.0642L85.8802 21.0711C85.0917 19.6848 83.4619 18.8584 81.5431 18.8584C77.8368 18.8584 75.3397 21.7109 75.3397 25.5765ZM78.5991 25.4965C78.5991 23.3105 79.9659 21.7109 81.9899 21.7109C84.1979 21.7109 85.6699 23.3371 85.6699 25.4965C85.6699 27.6826 84.1979 29.3621 81.9899 29.3621C79.9922 29.3621 78.5991 27.7092 78.5991 25.4965Z" fill="#ADADAD"/>
<path d="M90.4901 25.8431C90.4901 29.8953 93.1712 32.7745 97.2455 32.7745C101.32 32.7745 104.001 29.8953 104.001 25.8431C104.001 21.7909 101.32 18.9117 97.2455 18.9117C93.1712 18.9117 90.4901 21.7909 90.4901 25.8431ZM93.7232 25.8431C93.7232 23.4704 95.1163 21.8176 97.2455 21.8176C99.3746 21.8176 100.768 23.4704 100.768 25.8431C100.768 28.1891 99.3746 29.8686 97.2455 29.8686C95.1163 29.8686 93.7232 28.1891 93.7232 25.8431Z" fill="#ADADAD"/>
<path d="M107.471 16.5924C108.523 16.5924 109.39 15.7393 109.39 14.6463C109.39 13.5799 108.523 12.7268 107.471 12.7268C106.394 12.7268 105.579 13.5799 105.579 14.6463C105.579 15.7393 106.394 16.5924 107.471 16.5924ZM105.868 32.4545H109.075V19.2849H105.868V32.4545Z" fill="#ADADAD"/>
<path d="M111.884 38.5595H115.013V30.6417C115.827 32.0013 117.589 32.8011 119.534 32.8011C123.371 32.8011 125.658 29.8153 125.606 25.7098C125.527 21.5776 123.187 18.8851 119.507 18.8851C117.536 18.8851 115.749 19.7648 114.96 21.2844L114.776 19.285H111.884V38.5595ZM115.144 25.8698C115.144 23.4971 116.563 21.8442 118.798 21.8442C121.032 21.8442 122.373 23.5238 122.373 25.8698C122.373 28.2158 121.032 29.8686 118.798 29.8686C116.563 29.8686 115.144 28.2424 115.144 25.8698Z" fill="#ADADAD"/>
<path d="M126.419 28.509C126.525 31.1216 128.522 32.8011 131.624 32.8011C134.673 32.8011 136.75 31.1483 136.75 28.589C136.75 26.6962 135.593 25.4165 133.464 24.8834L131.177 24.3235C130.205 24.0569 129.547 23.7104 129.547 22.8573C129.547 21.9509 130.257 21.311 131.414 21.311C132.623 21.311 133.411 22.0042 133.411 23.1505H136.329C136.224 20.5379 134.305 18.8851 131.493 18.8851C128.706 18.8851 126.63 20.5379 126.63 23.0439C126.63 24.7501 127.602 26.163 130.099 26.8295L132.36 27.416C133.201 27.6559 133.727 28.0558 133.727 28.8023C133.727 29.842 132.754 30.3218 131.571 30.3218C130.152 30.3218 129.337 29.6553 129.337 28.509H126.419Z" fill="#ADADAD"/>
<path d="M143.402 32.8011C145.163 32.8011 146.846 31.9747 147.608 30.7484L147.818 32.4546H150.815V19.285H147.608V26.1897C147.608 28.5623 146.714 29.8953 144.611 29.8953C142.982 29.8953 141.851 29.0955 141.851 26.3763V19.285H138.645V27.5226C138.645 30.6684 140.327 32.8011 143.402 32.8011Z" fill="#ADADAD"/>
<path d="M156.851 32.4545V24.8834C156.851 22.7506 158.087 21.7376 159.611 21.7376C161.136 21.7376 162.135 22.724 162.135 24.5901V32.4545H165.263V24.91C165.263 22.7506 166.472 21.7376 167.997 21.7376C169.547 21.7376 170.546 22.724 170.546 24.5901V32.4545H173.648V23.8437C173.648 20.8045 171.992 18.8851 168.838 18.8851C166.866 18.8851 165.315 19.8448 164.685 21.391C163.975 19.8448 162.555 18.8851 160.4 18.8851C158.875 18.8851 157.509 19.6049 156.746 20.7779L156.589 19.285H153.645V32.4545H156.851Z" fill="#ADADAD"/>
<path d="M149.163 44.2239C149.641 44.2239 150.056 43.8159 150.056 43.3314C150.056 42.8341 149.641 42.4261 149.163 42.4261C148.673 42.4261 148.258 42.8341 148.258 43.3314C148.258 43.8159 148.673 44.2239 149.163 44.2239Z" fill="#ADADAD"/>
<path d="M150.978 40.9345C150.978 42.8852 152.16 44.1985 153.882 44.1985C155.366 44.1985 156.497 43.2932 156.736 41.9417H155.605C155.391 42.694 154.737 43.1402 153.958 43.1402C152.851 43.1402 152.147 42.2732 152.147 40.9217C152.147 39.5447 152.889 38.7032 153.983 38.7032C154.737 38.7032 155.391 39.1112 155.592 39.9145H156.723C156.522 38.5502 155.466 37.6322 153.995 37.6322C152.21 37.6322 150.978 38.971 150.978 40.9345Z" fill="#ADADAD"/>
<path d="M157.182 40.9216C157.182 42.7959 158.439 44.1984 160.325 44.1984C162.21 44.1984 163.467 42.7959 163.467 40.9216C163.467 39.0474 162.21 37.6449 160.325 37.6449C158.439 37.6449 157.182 39.0474 157.182 40.9216ZM158.376 40.9216C158.376 39.6466 159.143 38.7159 160.325 38.7159C161.506 38.7159 162.273 39.6466 162.273 40.9216C162.273 42.1966 161.506 43.1274 160.325 43.1274C159.143 43.1274 158.376 42.1966 158.376 40.9216Z" fill="#ADADAD"/>
<path d="M165.658 44.0581V40.3096C165.658 39.3279 166.262 38.6904 167.142 38.6904C167.984 38.6904 168.512 39.2386 168.512 40.2204V44.0581H169.669V40.3224C169.669 39.3279 170.259 38.6904 171.152 38.6904C171.982 38.6904 172.51 39.2386 172.51 40.2204V44.0581H173.654V39.9654C173.654 38.5246 172.824 37.6449 171.416 37.6449C170.461 37.6449 169.719 38.1166 169.417 38.8816C169.103 38.1166 168.411 37.6449 167.406 37.6449C166.639 37.6449 165.96 38.0019 165.621 38.6139L165.533 37.8234H164.477V44.0581H165.658Z" fill="#ADADAD"/>
<path fill-rule="evenodd" clip-rule="evenodd" d="M2.28571 26.0045L2.28792 25.7723L2.29247 25.5399L2.29937 25.3075L2.30862 25.0751L2.32023 24.8427L2.33418 24.6103L2.3505 24.378L2.36916 24.1457L2.39019 23.9135L2.41358 23.6814L2.43931 23.4496L2.46739 23.2177L2.49784 22.9862L2.53064 22.7548L2.56578 22.5237L2.60328 22.2929L2.64313 22.0622L2.68531 21.8321L2.72985 21.6021L2.77673 21.3725L2.82595 21.1432L2.8775 20.9144L2.93139 20.6861L2.9876 20.4581L3.04615 20.2306L3.107 20.0036L3.17019 19.7771L3.23569 19.5512L3.3035 19.3259L3.3736 19.1011L3.44601 18.8769L3.52072 18.6534L3.59771 18.4305L3.67698 18.2083L3.75854 17.9868L3.84235 17.766L3.92844 17.546L4.01679 17.3267L4.10738 17.1083L4.20022 16.8906L4.29529 16.6737L4.39259 16.4578L4.49211 16.2428L4.59385 16.0286L4.69779 15.8153L4.80393 15.6031L4.91225 15.3918L5.02275 15.1814L5.13542 14.9722L5.25024 14.7639L5.36722 14.5567L5.48633 14.3506L5.60758 14.1455L5.73094 13.9417L5.85641 13.7389L5.98398 13.5374L6.11363 13.3371L6.24537 13.1378L6.37916 12.94L6.51502 12.7433L6.6529 12.5478L6.79281 12.3538L6.93474 12.1609L7.07867 11.9696L7.2246 11.7795L7.3725 11.5907L7.52236 11.4034L7.67418 11.2175L7.82793 11.0331L7.98361 10.85L8.1412 10.6685L8.30067 10.4885L8.46203 10.31L8.62527 10.133L8.79034 9.9576L8.95726 9.78376L9.12599 9.61151L9.29652 9.44087L9.46885 9.27186L9.64296 9.1045L9.81882 8.93882L9.99642 8.77481L10.1757 8.61251L10.3568 8.45193L10.5395 8.29308L10.7239 8.136L10.91 7.98069L11.0977 7.82717L11.287 7.67546L11.4779 7.52557L11.6704 7.37753L11.8646 7.23133L12.0602 7.08702L12.2574 6.94461L12.456 6.80409L12.6562 6.6655L12.8578 6.52883L13.0609 6.39413L13.2655 6.26139L13.4715 6.13065L13.6789 6.00189L13.8877 5.87515L14.0977 5.75044L14.3091 5.62777L14.5219 5.50716L14.736 5.38862L14.9513 5.27215L15.1679 5.1578L15.3857 5.04554L15.6048 4.93541L15.825 4.82742L16.0465 4.72157L16.269 4.61789L16.4928 4.51639L16.7176 4.41707L16.9435 4.31995L17.1705 4.22504L17.3985 4.13235L17.6275 4.04188L17.8576 3.95368L18.0886 3.86771L18.3206 3.78402L18.5535 3.70259L18.7873 3.62345L19.0219 3.54662L19.2575 3.47207L19.4939 3.39985L19.7312 3.32996L19.9691 3.26239L20.208 3.19716L20.4475 3.13428L20.6878 3.07376L20.9287 3.01562L21.1704 2.95984L21.4127 2.90645L21.6555 2.85544L21.8991 2.80683L22.1432 2.76062L22.3879 2.71682L22.6331 2.67544L22.8789 2.63649L23.125 2.59995L23.3717 2.56586L23.6187 2.53421L23.8663 2.505L24.1142 2.47822L24.3624 2.45393L24.611 2.43208L24.8599 2.41269L25.109 2.39578L26.4489 2.31818L26.5254 8.8655L26.5691 8.86499L26.7542 8.86472L26.9392 8.8663L27.1242 8.86972L27.3095 8.87499L27.4946 8.88211L27.6799 8.89106L27.8651 8.90187L28.0504 8.91454L28.2355 8.92904L28.4208 8.94541L28.6058 8.96363L28.7909 8.9837L28.9757 9.00562L29.1605 9.02939L29.345 9.05502L29.5295 9.08249L29.7137 9.11183L29.8978 9.14301L30.0816 9.17603L30.2653 9.21091L30.4486 9.24763L30.6315 9.2862L30.8144 9.32661L30.9968 9.36886L31.1789 9.41294L31.3607 9.45886L31.5421 9.50663L31.723 9.55621L31.9035 9.60763L32.0838 9.66087L32.2634 9.71592L32.4426 9.7728L32.6214 9.8315L32.7997 9.892L32.9774 9.9543L33.1545 10.0184L33.3312 10.0843L33.5072 10.152L33.6826 10.2215L33.8575 10.2928L34.0317 10.3658L34.2051 10.4406L34.378 10.5172L34.5503 10.5955L34.7217 10.6756L34.8924 10.7575L35.0625 10.841L35.2318 10.9264L35.4002 11.0134L35.5679 11.1022L35.7347 11.1927L35.9008 11.2848L36.0659 11.3787L36.2303 11.4743L36.3937 11.5716L36.5562 11.6705L36.7178 11.7711L36.8785 11.8734L37.0382 11.9773L37.1969 12.0828L37.3546 12.19L37.5114 12.2989L37.6671 12.4092L37.8218 12.5213L37.9754 12.6349L38.1279 12.7501L38.2794 12.8669L38.4297 12.9853L38.579 13.1053L38.727 13.2266L38.8739 13.3496L39.0196 13.4742L39.1642 13.6002L39.3076 13.7277L39.4498 13.8567L39.5906 13.9872L39.7303 14.1192L39.8687 14.2526L40.0058 14.3874L40.1416 14.5238L40.2761 14.6615L40.4093 14.8007L40.5411 14.9411L40.6715 15.083L40.8007 15.2263L40.9283 15.3709L41.0546 15.5169L41.1795 15.6642L41.303 15.8128L41.425 15.9626L41.5456 16.1139L41.6647 16.2663L41.7823 16.42L41.8984 16.575L42.013 16.7312L42.126 16.8886L42.2376 17.0473L42.3475 17.2072L42.456 17.368L42.5629 17.5302L42.6681 17.6935L42.7718 17.858L42.8737 18.0235L42.9742 18.1901L43.0729 18.3578L43.17 18.5266L43.2655 18.6964L43.3593 18.8672L43.4514 19.0391L43.5418 19.2119L43.6305 19.3858L43.7175 19.5606L43.8027 19.7363L43.8863 19.9131L43.9681 20.0906L44.0481 20.2691L44.1264 20.4486L44.2029 20.6288L44.2775 20.81L44.3504 20.9918L44.4215 21.1746L44.4907 21.3581L44.5582 21.5425L44.6238 21.7275L44.6875 21.9134L44.7495 22.0999L44.8096 22.2872L44.8678 22.4751L44.9241 22.6637L44.9785 22.853L45.0311 23.0428L45.0817 23.2334L45.1305 23.4245L45.1772 23.6161L45.2223 23.8084L45.2653 24.0012L45.3063 24.1945L45.3455 24.3882L45.3826 24.5826L45.4178 24.7773L45.4512 24.9725L45.4825 25.168L45.5119 25.364L45.5393 25.5605L45.5647 25.7572L45.5881 25.9544L45.6096 26.1517L45.629 26.3495L45.6465 26.5475L45.662 26.7458L45.6755 26.9443L45.687 27.1431L45.6964 27.342L45.704 27.5413L45.7094 27.7405L45.7129 27.94L45.7143 28.1396L45.7137 28.3393L45.7111 28.5391L45.7064 28.7391L45.6998 28.9389L45.6911 29.1388L45.6805 29.3388L45.6677 29.5387L45.6529 29.7387L45.6361 29.9385L45.6172 30.1383L45.5965 30.338L45.5735 30.5375L45.5486 30.737L45.5217 30.9362L45.4927 31.1354L45.4617 31.3343L45.4287 31.5329L45.3936 31.7314L45.3566 31.9296L45.3175 32.1276L45.2763 32.3252L45.2331 32.5225L45.188 32.7195L45.1409 32.9161L45.0916 33.1123L45.0405 33.3081L44.9873 33.5035L44.9321 33.6985L44.875 33.893L44.8158 34.0871L44.7545 34.2806L44.6914 34.4737L44.6263 34.6661L44.5591 34.858L44.49 35.0494L44.419 35.2401L44.3459 35.4302L44.271 35.6197L44.194 35.8085L44.1152 35.9966L44.0344 36.1841L43.9516 36.3708L43.867 36.5568L43.7803 36.742L43.6919 36.9264L43.6014 37.1101L43.5091 37.2929L43.4148 37.475L43.3188 37.6561L43.2208 37.8364L43.121 38.0157L43.0193 38.1942L42.9158 38.3718L42.8104 38.5483L42.7032 38.7241L42.594 38.8986L42.4832 39.0723L42.3706 39.2448L42.2561 39.4164L42.1399 39.5869L42.0218 39.7563L41.9021 39.9246L41.7804 40.0919L41.6571 40.258L41.5321 40.4229L41.4054 40.5866L41.2769 40.7492L41.1467 40.9106L41.0149 41.0706L40.8812 41.2295L40.7461 41.3872L40.6091 41.5435L40.4706 41.6986L40.3305 41.8524L40.1888 42.0049L40.0454 42.156L39.9004 42.3056L39.7538 42.454L39.6057 42.601L39.4561 42.7466L39.3049 42.8908L39.1522 43.0334L38.9979 43.1747L38.8422 43.3144L38.685 43.4527L38.5263 43.5896L38.3662 43.7248L38.2046 43.8585L38.0416 43.9907L37.8771 44.1214L37.7113 44.2504L37.5441 44.3778L37.3755 44.5036L37.2057 44.6279L37.0344 44.7504L36.8618 44.8714L36.688 44.9907L36.5129 45.1082L36.3364 45.2241L36.1589 45.3384L35.98 45.4508L35.7999 45.5617L35.6185 45.6706L35.436 45.7779L35.2524 45.8834L35.0675 45.987L34.8817 46.089L34.6946 46.1891L34.5065 46.2874L34.3172 46.3839L34.127 46.4785L33.9357 46.5712L33.7433 46.6622L33.5499 46.7512L33.3556 46.8384L33.1603 46.9236L32.9641 47.0069L32.767 47.0884L32.5689 47.1679L32.3699 47.2455L32.1701 47.3211L31.9694 47.3948L31.7678 47.4665L31.5655 47.5362L31.3624 47.604L31.1584 47.6697L30.9537 47.7334L30.7483 47.7952L30.5423 47.8549L30.3354 47.9126L30.128 47.9684L29.9198 48.0219L29.7111 48.0735L29.5017 48.1231L29.2917 48.1705L29.0811 48.216L28.8701 48.2593L28.6584 48.3006L28.4463 48.3398L28.2337 48.3767L28.0206 48.4117L27.8071 48.4447L27.593 48.4754L27.3787 48.504L27.164 48.5305L26.9488 48.5549L26.7334 48.5771L26.5176 48.5973L26.3016 48.6153L26.0853 48.6312L25.8687 48.6448L25.6518 48.6564L25.4347 48.6658L25.2176 48.673L25.0001 48.6781L24.7826 48.681L24.5649 48.6818L24.3472 48.6804L24.1294 48.6768L23.9114 48.6711L23.6935 48.6631L23.4755 48.6531L23.2576 48.6409L23.0398 48.6264L22.8218 48.6098L22.6041 48.591L22.3864 48.5701L22.1688 48.547L21.9514 48.5217L21.7342 48.4943L21.517 48.4646L21.3002 48.4327L21.0835 48.3988L20.8672 48.3626L20.6511 48.3243L20.4352 48.2838L20.2198 48.2411L20.0046 48.1964L19.7898 48.1493L19.5753 48.1002L19.3614 48.0489L19.1478 47.9955L18.9346 47.9399L18.7219 47.8821L18.5098 47.8223L18.2982 47.7603L18.087 47.6962L17.8765 47.6299L17.6665 47.5615L17.4571 47.4911L17.2483 47.4184L17.0402 47.3436L16.8328 47.2669L16.6261 47.188L16.42 47.1069L16.2147 47.0238L16.0102 46.9387L15.8064 46.8514L15.6034 46.7621L15.4013 46.6708L15.1999 46.5774L14.9994 46.4819L14.7999 46.3844L14.6013 46.2848L14.4034 46.1833L14.2066 46.0798L14.0109 45.9742L13.8159 45.8667L13.6221 45.7572L13.4293 45.6457L13.2375 45.5322L13.0467 45.4168L12.8571 45.2995L12.6686 45.1801L12.4811 45.059L12.295 44.9357L12.1098 44.8108L11.9259 44.6838L11.7433 44.555L11.5618 44.4244L11.3816 44.2918L11.2027 44.1574L11.025 44.0211L10.8486 43.8831L10.6736 43.7433L10.4999 43.6015L10.3276 43.4581L10.1566 43.3129L9.98704 43.1659L9.81889 43.0172L9.65218 42.8666L9.48692 42.7145L9.32314 42.5606L9.16083 42.405L9.00004 42.2478L8.84078 42.0888L8.68304 41.9282L8.52687 41.7661L8.37227 41.6022L8.21927 41.4368L8.06787 41.2698L7.91811 41.1011L7.76999 40.931L7.62352 40.7593L7.47873 40.586L7.33563 40.4113L7.19425 40.2351L7.05458 40.0574L6.91666 39.8782L6.78049 39.6976L6.64609 39.5155L6.51347 39.332L6.38266 39.1471L6.25366 38.9609L6.12649 38.7733L6.00116 38.5844L5.8777 38.3941L5.75611 38.2026L5.6364 38.0097L5.51859 37.8156L5.40271 37.6203L5.28874 37.4236L5.17673 37.2258L5.06666 37.0268L4.95856 36.8266L4.85244 36.6252L4.74831 36.4227L4.64619 36.2191L4.54608 36.0145L4.44801 35.8087L4.35198 35.6018L4.25799 35.394L4.16607 35.185L4.07622 34.9752L3.98846 34.7643L3.9028 34.5525L3.81923 34.3397L3.73779 34.1259L3.65849 33.9114L3.58131 33.6959L3.50628 33.4796L3.4334 33.2625L3.3627 33.0445L3.29417 32.8258L3.22782 32.6063L3.16367 32.386L3.10171 32.165L3.04196 31.9433L2.98443 31.7209L2.92913 31.4979L2.87606 31.2742L2.82523 31.0499L2.77665 30.825L2.73032 30.5995L2.68625 30.3735L2.64444 30.147L2.60491 29.92L2.56767 29.6924L2.5327 29.4644L2.50002 29.236L2.46964 29.0071L2.44158 28.7778L2.4158 28.5482L2.39234 28.3182L2.3712 28.088L2.35238 27.8573L2.33587 27.6265L2.3217 27.3953L2.30986 27.164L2.30035 26.9324L2.29318 26.7007L2.28834 26.4688L2.28586 26.2367L2.28571 26.0045ZM24.4321 9.00264L24.38 4.53991L24.3305 4.54475L24.1033 4.56928L23.8767 4.59603L23.6502 4.62506L23.4246 4.65624L23.1992 4.68969L22.9741 4.72538L22.7496 4.76325L22.5254 4.80339L22.3023 4.84562L22.0789 4.89021L21.857 4.93681L21.6349 4.98575L21.4138 5.03678L21.193 5.09007L20.9733 5.14541L20.7541 5.20297L20.5354 5.26267L20.3175 5.32453L20.1006 5.38847L19.884 5.45461L19.6686 5.5228L19.4537 5.59315L19.24 5.66546L19.0266 5.74004L18.8144 5.81663L18.6032 5.89523L18.3926 5.97599L18.1831 6.05871L17.9747 6.14343L17.767 6.23033L17.5602 6.3192L17.3545 6.41009L17.1499 6.5029L16.9464 6.59772L16.744 6.69446L16.5423 6.79333L16.3421 6.89401L16.1429 6.99665L15.9448 7.10122L15.7479 7.20773L15.5523 7.31606L15.3576 7.42639L15.1641 7.53864L14.9723 7.65249L14.7811 7.76856L14.5918 7.88617L14.4037 8.00561L14.2165 8.12702L14.0307 8.25019L13.8464 8.37517L13.6638 8.50161L13.4818 8.63029L13.3017 8.76036L13.123 8.89221L12.9455 9.02588L12.7696 9.16114L12.5953 9.29801L12.4221 9.43681L12.2507 9.57694L12.0807 9.7189L11.9122 9.86241L11.7453 10.0076L11.58 10.1542L11.416 10.3026L11.2538 10.4523L11.0931 10.6038L10.9342 10.7565L10.7767 10.9109L10.621 11.0667L10.4669 11.2241L10.3143 11.383L10.1637 11.5431L10.0147 11.7045L9.86713 11.8678L9.72157 12.0322L9.5778 12.1977L9.43551 12.3649L9.29528 12.5332L9.1566 12.7031L9.01979 12.874L8.88477 13.0464L8.75152 13.2199L8.62023 13.3946L8.49065 13.5705L8.36285 13.7479L8.23712 13.926L8.11306 14.1057L7.99098 14.2863L7.87079 14.468L7.7524 14.6509L7.63601 14.8349L7.52153 15.0197L7.40897 15.2058L7.29842 15.3927L7.18969 15.5808L7.08291 15.77L6.97824 15.9599L6.87544 16.1508L6.7746 16.3427L6.67582 16.5355L6.57897 16.7292L6.4842 16.9235L6.39142 17.1188L6.30067 17.315L6.21191 17.512L6.12524 17.7096L6.04055 17.9082L5.95792 18.1074L5.8774 18.3073L5.7989 18.5079L5.72246 18.7092L5.64811 18.9111L5.57583 19.1137L5.50568 19.3168L5.43755 19.5207L5.37154 19.7251L5.30764 19.93L5.24586 20.1353L5.18614 20.3413L5.12857 20.5477L5.07311 20.7546L5.01975 20.9618L4.96851 21.1696L4.91942 21.3777L4.87244 21.5862L4.8276 21.7951L4.78489 22.0043L4.74432 22.2137L4.70587 22.4235L4.66958 22.6336L4.63542 22.8439L4.6034 23.0544L4.57353 23.2651L4.5458 23.4761L4.52022 23.6872L4.49678 23.8984L4.47548 24.1098L4.45634 24.3212L4.43934 24.5326L4.42448 24.7443L4.41177 24.9559L4.4012 25.1674L4.39278 25.3791L4.38649 25.5906L4.38235 25.8022L4.38034 26.0136L4.38048 26.225L4.38274 26.4362L4.38714 26.6474L4.39367 26.8583L4.40232 27.0691L4.41311 27.2797L4.426 27.4899L4.44102 27.7001L4.45815 27.9099L4.47739 28.1194L4.49873 28.3288L4.52218 28.5376L4.54772 28.7463L4.57536 28.9544L4.60508 29.1623L4.6369 29.3697L4.67078 29.5766L4.70674 29.7832L4.74476 29.9893L4.78484 30.1948L4.82698 30.3999L4.87116 30.6044L4.91739 30.8084L4.96566 31.0118L5.01594 31.2147L5.06826 31.4169L5.12257 31.6184L5.17891 31.8194L5.23724 32.0196L5.29756 32.2192L5.35987 32.4181L5.42414 32.6162L5.49038 32.8136L5.55858 33.0102L5.62873 33.2061L5.7008 33.4011L5.77484 33.5953L5.85076 33.7886L5.9286 33.9812L6.00836 34.1728L6.09 34.3634L6.17353 34.5533L6.25892 34.7422L6.34618 34.9301L6.43528 35.1171L6.52623 35.303L6.61899 35.488L6.71359 35.6719L6.80998 35.8548L6.90817 36.0367L7.00814 36.2174L7.10987 36.3971L7.21337 36.5757L7.31863 36.753L7.42556 36.9293L7.5343 37.1045L7.64468 37.2783L7.7568 37.4511L7.87059 37.6227L7.98603 37.793L8.10313 37.9621L8.22191 38.1299L8.34227 38.2965L8.46429 38.4618L8.58786 38.6257L8.71308 38.7883L8.8398 38.9495L8.96812 39.1095L9.09802 39.2681L9.22937 39.4253L9.36228 39.5811L9.49667 39.7355L9.63259 39.8885L9.76994 40.04L9.90872 40.1901L10.049 40.3387L10.1906 40.4859L10.3337 40.6316L10.4782 40.7757L10.6241 40.9183L10.7712 41.0594L10.9198 41.1991L11.0697 41.3371L11.2209 41.4735L11.3733 41.6083L11.5271 41.7416L11.6822 41.8733L11.8383 42.0034L11.9959 42.1319L12.1545 42.2586L12.3144 42.3838L12.4754 42.5073L12.6377 42.6292L12.801 42.7492L12.9655 42.8677L13.131 42.9844L13.2977 43.0995L13.4654 43.2128L13.6343 43.3244L13.804 43.4343L13.9749 43.5423L14.1467 43.6487L14.3194 43.7532L14.4933 43.856L14.6679 43.957L14.8435 44.0562L15.02 44.1536L15.1975 44.2492L15.3757 44.343L15.5547 44.435L15.7347 44.5251L15.9155 44.6134L16.097 44.6999L16.2793 44.7845L16.4623 44.8671L16.6462 44.948L16.8306 45.027L17.0159 45.1042L17.2017 45.1794L17.3882 45.2526L17.5754 45.3242L17.7631 45.3937L17.9514 45.4613L18.1405 45.527L18.3299 45.5909L18.52 45.6528L18.7104 45.7127L18.9016 45.7707L19.093 45.8269L19.285 45.881L19.4775 45.9333L19.6703 45.9836L19.8635 46.0319L20.057 46.0783L20.2511 46.1228L20.4454 46.1652L20.6399 46.2058L20.8349 46.2444L21.0301 46.281L21.2255 46.3156L21.4211 46.3483L21.617 46.379L21.8131 46.4078L22.0095 46.4346L22.2058 46.4595L22.4024 46.4823L22.5991 46.5032L22.7959 46.5222L22.9928 46.5391L23.1897 46.5542L23.3866 46.5672L23.5837 46.5783L23.7806 46.5873L23.9775 46.5945L24.1744 46.5997L24.3713 46.6029L24.568 46.6041L24.7647 46.6034L24.9613 46.6008L25.1576 46.5963L25.3538 46.5896L25.5499 46.5812L25.7458 46.5708L25.9414 46.5583L26.1368 46.5441L26.332 46.5279L26.5269 46.5097L26.7214 46.4895L26.9157 46.4675L27.1095 46.4436L27.3031 46.4178L27.4962 46.3899L27.689 46.3603L27.8814 46.3287L28.0734 46.2952L28.2649 46.2599L28.4559 46.2227L28.6464 46.1836L28.8365 46.1426L29.0259 46.0998L29.2149 46.0551L29.4033 46.0085L29.5911 45.9601L29.7783 45.9098L29.9648 45.8578L30.1509 45.8039L30.3361 45.7481L30.5208 45.6907L30.7047 45.6314L30.888 45.5702L31.0705 45.5074L31.2521 45.4427L31.4333 45.3762L31.6135 45.308L31.7929 45.238L31.9715 45.1664L32.1493 45.093L32.3262 45.0178L32.5023 44.941L32.6775 44.8624L32.8517 44.7822L33.0251 44.7002L33.1976 44.6165L33.369 44.5313L33.5397 44.4443L33.7091 44.3557L33.8777 44.2656L34.0454 44.1736L34.2118 44.0802L34.3773 43.9852L34.5416 43.8886L34.7051 43.7903L34.8672 43.6906L35.0286 43.5892L35.1884 43.4864L35.3473 43.382L35.5051 43.276L35.6618 43.1685L35.817 43.0598L35.9712 42.9493L36.1242 42.8374L36.276 42.7242L36.4266 42.6093L36.5758 42.4933L36.724 42.3755L36.8706 42.2566L37.016 42.1363L37.1603 42.0145L37.3032 41.8913L37.4446 41.7669L37.5848 41.641L37.7235 41.514L37.861 41.3856L37.9971 41.2559L38.1316 41.125L38.265 40.9926L38.3969 40.8591L38.5273 40.7244L38.6563 40.5885L38.7838 40.4515L38.9097 40.3133L39.0345 40.1735L39.1575 40.033L39.2792 39.8911L39.3992 39.7483L39.5178 39.6043L39.6348 39.4593L39.7503 39.3131L39.8643 39.1658L39.9767 39.0177L40.0876 38.8683L40.1968 38.718L40.3046 38.5667L40.4109 38.4142L40.5151 38.2612L40.618 38.107L40.7192 37.952L40.8188 37.7959L40.917 37.6388L41.0132 37.4812L41.1079 37.3226L41.201 37.1628L41.2922 37.0027L41.3819 36.8415L41.4701 36.6794L41.5562 36.5169L41.6409 36.3533L41.7239 36.1889L41.8049 36.0244L41.8844 35.8586L41.9623 35.6921L42.0383 35.5252L42.1126 35.3576L42.1851 35.1893L42.2559 35.0205L42.325 34.8508L42.3923 34.6807L42.4578 34.5104L42.5216 34.3389L42.5835 34.1673L42.6439 33.995L42.7024 33.8223L42.7591 33.649L42.8138 33.4757L42.8671 33.3011L42.9183 33.1268L42.9678 32.9519L43.0155 32.7768L43.0615 32.6009L43.1055 32.4251L43.1479 32.2487L43.1883 32.0719L43.2271 31.895L43.264 31.7177L43.299 31.5405L43.3322 31.3624L43.3636 31.1849L43.3932 31.0066L43.421 30.8282L43.447 30.6498L43.4712 30.4711L43.4935 30.2926L43.514 30.1133L43.5327 29.9347L43.5496 29.7555L43.5646 29.5766L43.5778 29.3972L43.5892 29.2185L43.5988 29.0392L43.6066 28.8597L43.6126 28.6808L43.6168 28.5022L43.6191 28.3228L43.6196 28.1439L43.6184 27.9651L43.6153 27.7865L43.6104 27.6079L43.6036 27.43L43.5952 27.2514L43.5849 27.0736L43.5728 26.8958L43.559 26.7185L43.5433 26.541L43.5259 26.3642L43.5067 26.1873L43.4857 26.011L43.463 25.8349L43.4385 25.6593L43.4121 25.4835L43.3841 25.3086L43.3544 25.1343L43.3228 24.9599L43.2895 24.786L43.2545 24.6128L43.2177 24.4395L43.1794 24.2675L43.1391 24.0953L43.0974 23.9242L43.0536 23.7529L43.0083 23.5829L42.9614 23.413L42.9127 23.2436L42.8624 23.0752L42.8104 22.9073L42.7566 22.7396L42.7014 22.5732L42.6442 22.4068L42.5857 22.2416L42.5254 22.0766L42.4635 21.9128L42.3999 21.7493L42.3347 21.5867L42.2681 21.4251L42.1999 21.2642L42.1297 21.1036L42.0585 20.9444L41.9852 20.7854L41.9107 20.6279L41.8346 20.4709L41.7568 20.3146L41.6777 20.1595L41.5969 20.0051L41.5145 19.8514L41.4311 19.6992L41.3457 19.5474L41.2591 19.3968L41.1707 19.2469L41.0814 19.0986L40.99 18.9506L40.8977 18.8039L40.8036 18.658L40.7083 18.5133L40.6118 18.37L40.5135 18.2272L40.4139 18.0856L40.3131 17.9452L40.2109 17.8059L40.1073 17.6676L40.0024 17.5305L39.8962 17.3945L39.7887 17.2597L39.6799 17.126L39.5697 16.9934L39.4583 16.8621L39.3457 16.7319L39.232 16.603L39.1169 16.4753L39.0003 16.3486L38.8832 16.2237L38.7641 16.0994L38.6445 15.9769L38.5234 15.8553L38.4014 15.7352L38.2777 15.6161L38.1536 15.4988L38.0279 15.3824L37.9011 15.2674L37.7737 15.1539L37.645 15.0417L37.5149 14.9306L37.384 14.8211L37.2522 14.7129L37.1193 14.6062L36.9854 14.5007L36.8507 14.3969L36.7146 14.294L36.578 14.1931L36.4403 14.0934L36.3016 13.995L36.1623 13.8982L36.0215 13.8026L35.8807 13.7089L35.7383 13.6163L35.5954 13.5253L35.4514 13.4357L35.3069 13.3476L35.1615 13.2612L35.0155 13.1763L34.8682 13.0925L34.7209 13.0107L34.5723 12.9301L34.4232 12.8512L34.2735 12.7739L34.1229 12.698L33.9717 12.6235L33.8199 12.5509L33.6673 12.4796L33.5144 12.41L33.3607 12.3419L33.2015 12.2733L33.0518 12.2106L32.896 12.147L32.7404 12.0855L32.5837 12.0251L32.4269 11.9667L32.2694 11.9097L32.1115 11.8544L31.953 11.8005L31.7944 11.7484L31.6351 11.6979L31.4754 11.649L31.3157 11.6018L31.1552 11.5561L30.9942 11.5119L30.8334 11.4696L30.6722 11.4289L30.5101 11.3896L30.3484 11.3522L30.1861 11.3163L30.0237 11.2821L29.8607 11.2494L29.6979 11.2185L29.5347 11.1892L29.3717 11.1616L29.2078 11.1355L29.0443 11.1111L28.8806 11.0884L28.7166 11.0673L28.5526 11.0478L28.3886 11.0301L28.2245 11.0139L28.0602 10.9994L27.8959 10.9865L27.7314 10.9753L27.5674 10.9657L27.4033 10.9578L27.2386 10.9514L27.0749 10.9468L26.9107 10.9437L26.7467 10.9424L26.5825 10.9426L26.5496 10.943L26.6014 15.3732L26.6945 15.3728L26.8144 15.3735L26.9343 15.3753L27.0543 15.3785L27.1744 15.3828L27.2945 15.3883L27.4146 15.395L27.5349 15.4029L27.6551 15.4121L27.7753 15.4224L27.8955 15.434L28.0157 15.4467L28.1359 15.4608L28.256 15.4759L28.376 15.4923L28.496 15.51L28.6159 15.5288L28.7357 15.5488L28.8554 15.5702L28.975 15.5927L29.0944 15.6164L29.2137 15.6413L29.3329 15.6674L29.4519 15.6948L29.5706 15.7234L29.6893 15.7532L29.8075 15.7841L29.9257 15.8164L30.0437 15.8497L30.1614 15.8844L30.2789 15.9202L30.396 15.9572L30.5128 15.9954L30.6294 16.0349L30.7457 16.0755L30.8616 16.1174L30.9773 16.1604L31.0925 16.2045L31.2074 16.25L31.3219 16.2966L31.4361 16.3443L31.5498 16.3934L31.6632 16.4434L31.7761 16.4948L31.8886 16.5472L32.0006 16.6008L32.1122 16.6557L32.2233 16.7116L32.3339 16.7688L32.4441 16.8271L32.5537 16.8864L32.6629 16.9471L32.7714 17.0087L32.8794 17.0715L32.987 17.1355L33.0939 17.2007L33.2002 17.2669L33.3059 17.3342L33.4111 17.4027L33.5157 17.4722L33.6195 17.5428L33.7229 17.6146L33.8255 17.6875L33.9274 17.7613L34.0287 17.8363L34.1293 17.9125L34.2292 17.9895L34.3283 18.0678L34.4269 18.1471L34.5246 18.2273L34.6216 18.3086L34.7178 18.3911L34.8134 18.4744L34.9081 18.5588L35.0021 18.6442L35.0952 18.7307L35.1874 18.8181L35.279 18.9065L35.3696 18.9959L35.4594 19.0863L35.5485 19.1776L35.6366 19.27L35.7239 19.3632L35.8102 19.4574L35.8957 19.5526L35.9802 19.6487L36.0639 19.7456L36.1466 19.8435L36.2285 19.9423L36.3094 20.0419L36.3892 20.1426L36.4682 20.244L36.5462 20.3463L36.6232 20.4495L36.6992 20.5536L36.7742 20.6584L36.8482 20.7641L36.9211 20.8706L36.9931 20.9779L37.064 21.0861L37.1338 21.1949L37.2026 21.3047L37.2704 21.4151L37.3371 21.5263L37.4027 21.6383L37.4672 21.751L37.5306 21.8644L37.5929 21.9786L37.654 22.0934L37.7142 22.209L37.7731 22.3252L37.8309 22.4422L37.8875 22.5598L37.9431 22.6781L37.9974 22.7969L38.0505 22.9165L38.1025 23.0366L38.1534 23.1574L38.203 23.2787L38.2514 23.4006L38.2986 23.5232L38.3446 23.6461L38.3894 23.7698L38.4329 23.894L38.4753 24.0187L38.5164 24.1439L38.5562 24.2696L38.5948 24.3957L38.6322 24.5224L38.6683 24.6496L38.7032 24.7772L38.7367 24.9053L38.769 25.0337L38.8 25.1626L38.8297 25.2918L38.8582 25.4215L38.8853 25.5516L38.9111 25.682L38.9355 25.8127L38.9587 25.9439L38.9807 26.0754L39.0012 26.207L39.0204 26.3392L39.0384 26.4714L39.055 26.604L39.0703 26.737L39.0841 26.8702L39.0967 27.0034L39.108 27.1371L39.1178 27.2708L39.1264 27.4048L39.1335 27.5389L39.1393 27.6733L39.1438 27.8079L39.1469 27.9424L39.1486 28.0772L39.1489 28.2121L39.1479 28.3471L39.1455 28.4821L39.1417 28.6173L39.1366 28.7525L39.1301 28.8877L39.1222 29.0229L39.1129 29.1583L39.1023 29.2936L39.0902 29.4288L39.0768 29.5641L39.0619 29.6993L39.0458 29.8345L39.0282 29.9696L39.0092 30.1046L38.9889 30.2395L38.9672 30.3743L38.9441 30.509L38.9195 30.6436L38.8937 30.778L38.8664 30.9122L38.8377 31.0464L38.8078 31.1802L38.7763 31.3139L38.7435 31.4473L38.7094 31.5806L38.6738 31.7135L38.6369 31.8462L38.5986 31.9786L38.559 32.1108L38.5179 32.2427L38.4754 32.3742L38.4317 32.5053L38.3865 32.6362L38.3401 32.7667L38.2922 32.8967L38.243 33.0264L38.1925 33.1558L38.1406 33.2847L38.0873 33.4132L38.0327 33.5412L37.9768 33.6688L37.9195 33.796L37.8609 33.9225L37.801 34.0486L37.7398 34.1743L37.6771 34.2993L37.6132 34.4239L37.5481 34.5479L37.4816 34.6713L37.4138 34.7942L37.3448 34.9164L37.2744 35.038L37.2027 35.1592L37.1298 35.2795L37.0556 35.3993L36.9801 35.5184L36.9034 35.6368L36.8254 35.7545L36.7462 35.8715L36.6657 35.9879L36.584 36.1035L36.501 36.2183L36.4169 36.3325L36.3315 36.4459L36.2449 36.5584L36.1571 36.6701L36.0681 36.7812L35.9779 36.8913L35.8866 37.0007L35.794 37.1092L35.7003 37.2169L35.6055 37.3236L35.5095 37.4296L35.4123 37.5346L35.3142 37.6388L35.2147 37.742L35.1143 37.8443L35.0126 37.9456L34.9099 38.0461L34.806 38.1456L34.7013 38.244L34.5953 38.3416L34.4882 38.438L34.3802 38.5335L34.2711 38.6281L34.161 38.7215L34.0498 38.814L33.9377 38.9053L33.8244 38.9956L33.7103 39.0849L33.5952 39.1731L33.4791 39.2601L33.3619 39.3461L33.244 39.4311L33.125 39.5148L33.0051 39.5974L32.8842 39.6789L32.7625 39.7592L32.6399 39.8384L32.5165 39.9164L32.392 39.9931L32.2669 40.0688L32.1407 40.1432L32.0138 40.2164L31.886 40.2884L31.7575 40.3592L31.6281 40.4287L31.4979 40.497L31.367 40.564L31.2353 40.6297L31.1029 40.6943L30.9696 40.7575L30.8357 40.8193L30.701 40.88L30.5657 40.9393L30.4296 40.9973L30.2929 41.0539L30.1555 41.1094L30.0175 41.1634L29.8789 41.2161L29.7395 41.2674L29.5997 41.3174L29.4591 41.366L29.3181 41.4133L29.1763 41.459L29.0342 41.5036L28.8914 41.5467L28.7481 41.5883L28.6043 41.6286L28.46 41.6674L28.3152 41.7049L28.1699 41.7409L28.0242 41.7756L27.8779 41.8087L27.7314 41.8405L27.5843 41.8708L27.4369 41.8996L27.2891 41.9271L27.1409 41.9531L26.9923 41.9775L26.8435 42.0005L26.6943 42.022L26.5447 42.0421L26.3949 42.0607L26.2448 42.0778L26.0944 42.0934L25.9438 42.1076L25.7929 42.1202L25.6418 42.1313L25.4905 42.1409L25.339 42.1491L25.1873 42.1557L25.0354 42.1608L24.8834 42.1644L24.7313 42.1664L24.579 42.167L24.4266 42.1661L24.2743 42.1635L24.1217 42.1596L23.9691 42.154L23.8166 42.147L23.6639 42.1384L23.5113 42.1283L23.3586 42.1167L23.2061 42.1035L23.0535 42.0888L22.9009 42.0726L22.7485 42.0548L22.5961 42.0356L22.4438 42.0147L22.2917 41.9923L22.1397 41.9685L21.9878 41.9431L21.836 41.9161L21.6845 41.8877L21.5331 41.8577L21.3821 41.826L21.2311 41.793L21.0805 41.7584L20.9301 41.7223L20.7799 41.6846L20.6301 41.6454L20.4805 41.6047L20.3312 41.5626L20.1824 41.5189L20.0338 41.4737L19.8856 41.4269L19.7378 41.3786L19.5905 41.3289L19.4434 41.2776L19.2969 41.2249L19.1509 41.1707L19.0051 41.1149L18.86 41.0577L18.7153 40.999L18.5711 40.9387L18.4274 40.8771L18.2843 40.814L18.1418 40.7493L17.9998 40.6833L17.8584 40.6158L17.7176 40.5468L17.5774 40.4764L17.4377 40.4045L17.2989 40.3313L17.1606 40.2565L17.023 40.1803L16.8861 40.1028L16.7498 40.0237L16.6143 39.9434L16.4795 39.8616L16.3455 39.7784L16.2122 39.6939L16.0798 39.6079L15.9481 39.5206L15.8173 39.4318L15.6872 39.3417L15.5579 39.2504L15.4296 39.1577L15.3021 39.0636L15.1754 38.9682L15.0496 38.8714L14.9248 38.7733L14.8009 38.674L14.6779 38.5733L14.5559 38.4714L14.4347 38.3681L14.3146 38.2637L14.1955 38.1578L14.0774 38.0509L13.9602 37.9426L13.8442 37.8332L13.7291 37.7225L13.6151 37.6105L13.5022 37.4974L13.3904 37.3831L13.2797 37.2675L13.1699 37.1509L13.0614 37.0331L12.9541 36.9141L12.8478 36.7939L12.7426 36.6727L12.6387 36.5503L12.5359 36.4269L12.4344 36.3023L12.3339 36.1765L12.2349 36.0498L12.1369 35.922L12.0402 35.7931L11.9448 35.6631L11.8505 35.5323L11.7576 35.4002L11.6661 35.2673L11.5757 35.1333L11.4866 34.9984L11.3989 34.8625L11.3125 34.7257L11.2275 34.5878L11.1438 34.4491L11.0614 34.3094L10.9804 34.1689L10.9008 34.0274L10.8226 33.8852L10.7458 33.7419L10.6704 33.598L10.5963 33.4531L10.5238 33.3074L10.4526 33.1609L10.3829 33.0136L10.3147 32.8656L10.2479 32.7166L10.1825 32.5671L10.1187 32.4167L10.0564 32.2656L9.99548 32.1139L9.93614 31.9615L9.87828 31.8082L9.82195 31.6544L9.76714 31.5L9.71387 31.3448L9.66215 31.1892L9.61196 31.0328L9.56333 30.8759L9.51627 30.7184L9.47078 30.5604L9.42685 30.4018L9.38451 30.2426L9.34377 30.0829L9.30461 29.9228L9.26705 29.7622L9.23111 29.6011L9.19676 29.4395L9.16404 29.2776L9.13295 29.1152L9.10347 28.9523L9.07563 28.7891L9.04944 28.6256L9.02488 28.4617L9.00196 28.2975L8.98071 28.1329L8.96111 27.9679L8.94316 27.8028L8.92688 27.6374L8.91226 27.4716L8.89932 27.3056L8.88805 27.1395L8.87846 26.9731L8.87055 26.8065L8.86432 26.6398L8.85978 26.4729L8.85692 26.3059L8.85576 26.1387L8.8563 25.9714L8.85851 25.804L8.86244 25.6367L8.86805 25.4692L8.87538 25.3016L8.88441 25.1341L8.89513 24.9665L8.90756 24.799L8.92169 24.6314L8.93753 24.464L8.95508 24.2965L8.97433 24.1293L8.99529 23.962L9.01795 23.7949L9.04232 23.6278L9.0684 23.461L9.09617 23.2944L9.12566 23.1279L9.15684 22.9616L9.18974 22.7955L9.22432 22.6297L9.26061 22.4641L9.2986 22.2988L9.33828 22.1338L9.37965 21.9691L9.42273 21.8047L9.46748 21.6406L9.51393 21.4769L9.56207 21.3136L9.61187 21.1506L9.66337 20.988L9.71654 20.826L9.77137 20.6643L9.82788 20.503L9.88605 20.3423L9.94588 20.182L10.0074 20.0222L10.0705 19.863L10.1353 19.7043L10.2017 19.5462L10.2698 19.3886L10.3395 19.2316L10.4108 19.0753L10.4838 18.9195L10.5584 18.7644L10.6346 18.61L10.7124 18.4562L10.7918 18.3032L10.8727 18.1508L10.9553 17.9992L11.0395 17.8483L11.1252 17.698L11.2125 17.5487L11.3014 17.4001L11.3918 17.2524L11.4838 17.1054L11.5773 16.9592L11.6723 16.814L11.7688 16.6696L11.867 16.5261L11.9665 16.3834L12.0675 16.2416L12.1702 16.1009L12.2742 15.961L12.3798 15.8222L12.4867 15.6842L12.5952 15.5473L12.705 15.4115L12.8163 15.2766L12.9291 15.1427L13.0433 15.0099L13.1589 14.8782L13.2759 14.7476L13.3942 14.618L13.5139 14.4896L13.6351 14.3622L13.7575 14.2361L13.8813 14.111L14.0064 13.9871L14.1329 13.8645L14.2607 13.7429L14.3897 13.6227L14.5201 13.5035L14.6518 13.3858L14.7846 13.2691L14.9187 13.1538L15.0542 13.0398L15.1907 12.927L15.3286 12.8155L15.4677 12.7054L15.6079 12.5965L15.7493 12.4891L15.8919 12.3829L16.0355 12.2781L16.1803 12.1747L16.3264 12.0727L16.4735 11.9721L16.6216 11.873L16.771 11.7752L16.9213 11.6789L17.0727 11.584L17.2251 11.4906L17.3786 11.3986L17.533 11.3081L17.6886 11.2191L17.845 11.1316L18.0024 11.0457L18.1608 10.9612L18.3201 10.8783L18.4803 10.7969L18.6415 10.7171L18.8035 10.6388L18.9665 10.5621L19.1303 10.487L19.295 10.4135L19.4605 10.3416L19.6267 10.2713L19.7938 10.2026L19.9616 10.1355L20.1303 10.0701L20.2997 10.0064L20.4698 9.94424L20.6407 9.88378L20.8122 9.82499L20.9845 9.76788L21.1573 9.71247L21.3309 9.65873L21.505 9.6067L21.6799 9.55639L21.8552 9.50777L22.0312 9.46089L22.2078 9.41573L22.3849 9.37231L22.5625 9.33064L22.7407 9.2907L22.9193 9.25252L23.0984 9.2161L23.2781 9.18145L23.4581 9.14857L23.6385 9.11746L23.8194 9.08814L24.0007 9.0606L24.1823 9.03485L24.3642 9.01089L24.4321 9.00264ZM24.5089 15.5737L24.4566 11.0947L24.3074 11.1158L24.1471 11.1402L23.9866 11.1662L23.8272 11.1937L23.6675 11.2228L23.5087 11.2535L23.3502 11.2857L23.1922 11.3195L23.0346 11.3548L22.8774 11.3917L22.7206 11.4301L22.5645 11.4701L22.4085 11.5116L22.2586 11.5531L22.099 11.5991L21.9448 11.6451L21.7913 11.6927L21.6386 11.7416L21.4863 11.7921L21.3345 11.8442L21.1834 11.8976L21.0331 11.9524L20.8834 12.0089L20.7344 12.0666L20.5859 12.1259L20.4386 12.1866L20.2913 12.2488L20.1451 12.3123L19.9997 12.3772L19.8552 12.4435L19.7111 12.5113L19.5678 12.5805L19.4257 12.6509L19.2839 12.7229L19.1435 12.796L19.0034 12.8708L18.8647 12.9465L18.7262 13.024L18.589 13.1024L18.4528 13.1822L18.3173 13.2635L18.1827 13.3459L18.0489 13.4298L17.9165 13.5146L17.7846 13.601L17.6539 13.6885L17.5242 13.7772L17.3954 13.8672L17.2674 13.9586L17.1409 14.0507L17.0151 14.1445L16.8903 14.2393L16.7666 14.3353L16.6441 14.4323L16.5224 14.5307L16.4021 14.63L16.2827 14.7305L16.1643 14.8324L16.0474 14.935L15.9313 15.039L15.8163 15.144L15.7026 15.2499L15.5902 15.3569L15.4785 15.4652L15.3685 15.5741L15.2594 15.6842L15.1514 15.7955L15.0448 15.9076L14.9393 16.0208L14.8351 16.1349L14.7321 16.2499L14.6303 16.3659L14.5296 16.483L14.4306 16.6006L14.3326 16.7194L14.2358 16.8391L14.1403 16.9596L14.0463 17.0808L13.9533 17.2032L13.8617 17.3262L13.7714 17.4501L13.6825 17.5748L13.5949 17.7004L13.5087 17.8265L13.4238 17.9535L13.3401 18.0813L13.2578 18.2099L13.177 18.339L13.0976 18.4689L13.0194 18.5998L12.9426 18.731L12.8673 18.863L12.7933 18.9958L12.7208 19.1288L12.6496 19.2628L12.5797 19.3975L12.5114 19.5324L12.4445 19.6683L12.379 19.8046L12.3149 19.9412L12.2522 20.0787L12.191 20.2165L12.1312 20.3549L12.0728 20.4938L12.016 20.6331L11.9606 20.7729L11.9065 20.9132L11.8539 21.054L11.803 21.195L11.7533 21.3367L11.7053 21.4784L11.6585 21.6207L11.6134 21.7634L11.5696 21.9065L11.5274 22.0497L11.4866 22.1933L11.4474 22.3372L11.4096 22.4815L11.3733 22.6259L11.3385 22.7707L11.3052 22.9157L11.2734 23.0608L11.243 23.2063L11.2142 23.3518L11.1869 23.4975L11.161 23.6436L11.1367 23.7896L11.1138 23.9359L11.0925 24.0821L11.0726 24.2286L11.0543 24.3751L11.0374 24.5217L11.022 24.6683L11.0081 24.8151L10.9958 24.9618L10.9849 25.1085L10.9755 25.2553L10.9676 25.402L10.9612 25.5487L10.9563 25.6953L10.9528 25.8418L10.9509 25.9883L10.9504 26.1348L10.9514 26.2811L10.9539 26.4273L10.9579 26.5733L10.9633 26.7191L10.9703 26.8649L10.9787 27.0105L10.9885 27.1558L10.9998 27.301L11.0126 27.4459L11.0269 27.5905L11.0425 27.7349L11.0597 27.8791L11.0783 28.0231L11.0983 28.1666L11.1198 28.31L11.1427 28.4528L11.167 28.5955L11.1928 28.7378L11.2199 28.8796L11.2485 29.0212L11.2785 29.1623L11.3099 29.3031L11.3427 29.4432L11.3769 29.5831L11.4125 29.7226L11.4495 29.8615L11.4878 29.9999L11.5275 30.138L11.5686 30.2754L11.6111 30.4124L11.6549 30.549L11.7 30.6848L11.7465 30.8201L11.7943 30.9549L11.8434 31.0891L11.8939 31.2228L11.9457 31.3557L11.9987 31.4881L12.0531 31.6199L12.1088 31.751L12.1658 31.8814L12.224 32.0112L12.2835 32.1402L12.3443 32.2686L12.4063 32.3964L12.4696 32.5233L12.5341 32.6496L12.5998 32.7751L12.6667 32.8999L12.7349 33.0239L12.8042 33.1471L12.8747 33.2695L12.9465 33.3911L13.0194 33.512L13.0935 33.6319L13.1687 33.7511L13.2451 33.8696L13.3225 33.9869L13.4013 34.1036L13.4809 34.2192L13.5618 34.3341L13.6438 34.4481L13.7269 34.5611L13.811 34.6732L13.8962 34.7844L13.9824 34.8947L14.0697 35.004L14.1581 35.1123L14.2474 35.2198L14.3378 35.3261L14.4293 35.4317L14.5216 35.536L14.615 35.6395L14.7093 35.7418L14.8046 35.8433L14.9008 35.9436L14.9981 36.043L15.0961 36.1413L15.1952 36.2385L15.2952 36.3347L15.3959 36.4298L15.4977 36.5239L15.6002 36.6167L15.7037 36.7085L15.808 36.7993L15.9131 36.8889L16.0191 36.9774L16.1258 37.0647L16.2334 37.1509L16.3417 37.236L16.4509 37.3201L16.5608 37.4028L16.6713 37.4844L16.7826 37.5649L16.8947 37.6441L17.0075 37.7223L17.1211 37.7992L17.2353 37.8749L17.3502 37.9494L17.4657 38.0228L17.5818 38.0949L17.6986 38.1658L17.8161 38.2355L17.9341 38.3039L18.0528 38.3711L18.1719 38.4371L18.2918 38.5019L18.4121 38.5654L18.5329 38.6275L18.6544 38.6886L18.7765 38.7483L18.8989 38.8068L19.0217 38.864L19.1453 38.9199L19.269 38.9745L19.3934 39.0279L19.5182 39.08L19.6434 39.1308L19.7689 39.1803L19.895 39.2285L20.0214 39.2754L20.1481 39.3211L20.2752 39.3654L20.4027 39.4085L20.5305 39.4501L20.6586 39.4906L20.7871 39.5296L20.9158 39.5674L21.0447 39.6039L21.1739 39.639L21.3034 39.673L21.4331 39.7055L21.5631 39.7366L21.6933 39.7665L21.8237 39.7952L21.9542 39.8224L22.0848 39.8483L22.2158 39.8728L22.3466 39.8961L22.4778 39.9182L22.609 39.9387L22.7403 39.958L22.8718 39.976L23.0032 39.9927L23.1347 40.008L23.2663 40.022L23.3979 40.0346L23.5296 40.046L23.6613 40.056L23.7929 40.0648L23.9245 40.0721L24.056 40.0782L24.1877 40.083L24.3191 40.0865L24.4504 40.0885L24.5817 40.0893L24.7129 40.0889L24.844 40.087L24.975 40.084L25.1057 40.0796L25.2365 40.0739L25.3669 40.0669L25.4971 40.0586L25.6272 40.049L25.7571 40.0381L25.8867 40.0259L26.0162 40.0125L26.1455 39.9978L26.2744 39.9818L26.4031 39.9645L26.5314 39.9461L26.6595 39.9263L26.7873 39.9052L26.9146 39.8829L27.0418 39.8593L27.1686 39.8345L27.295 39.8085L27.4211 39.7811L27.5466 39.7526L27.6719 39.723L27.7967 39.6919L27.9211 39.6598L28.0451 39.6264L28.1687 39.5918L28.2918 39.5559L28.4144 39.519L28.5365 39.4808L28.6581 39.4414L28.7793 39.4009L28.8999 39.3591L29.02 39.3162L29.1395 39.2722L29.2585 39.227L29.3769 39.1806L29.4947 39.1331L29.6121 39.0844L29.7288 39.0347L29.8448 38.9838L29.9603 38.9319L30.0751 38.8788L30.1894 38.8246L30.303 38.7693L30.4157 38.713L30.5281 38.6554L30.6395 38.597L30.7505 38.5373L30.8605 38.4768L30.9699 38.4152L31.0787 38.3525L31.1866 38.2887L31.2939 38.2239L31.4005 38.1582L31.5061 38.0914L31.6112 38.0236L31.7152 37.955L31.8186 37.8852L31.9214 37.8144L32.0231 37.7428L32.1239 37.6703L32.2242 37.5966L32.3234 37.5223L32.4219 37.4469L32.5197 37.3705L32.6161 37.2934L32.7122 37.2152L32.8073 37.1361L32.9011 37.0564L32.9946 36.9753L33.0869 36.8939L33.1782 36.8116L33.2689 36.728L33.3583 36.6441L33.447 36.5591L33.5347 36.4733L33.6214 36.3869L33.7072 36.2995L33.7921 36.2114L33.876 36.1225L33.9587 36.0329L34.0407 35.9425L34.1217 35.8514L34.2015 35.7597L34.2806 35.667L34.3584 35.5738L34.4352 35.4799L34.5112 35.3851L34.5859 35.29L34.6598 35.1939L34.7326 35.0974L34.8043 35L34.875 34.9022L34.9445 34.8039L35.0131 34.7046L35.0806 34.605L35.147 34.5047L35.2125 34.4038L35.2765 34.3026L35.3398 34.2006L35.4018 34.098L35.4629 33.9951L35.5226 33.8916L35.5816 33.7874L35.6391 33.6832L35.6958 33.5779L35.7512 33.4726L35.8054 33.3667L35.8587 33.2601L35.9106 33.1537L35.9617 33.0461L36.0113 32.9389L36.0602 32.8305L36.1075 32.7224L36.154 32.6133L36.1993 32.5044L36.2433 32.395L36.2863 32.2851L36.3281 32.1748L36.3686 32.0646L36.4082 31.9537L36.4464 31.8427L36.4835 31.7314L36.5195 31.6198L36.5544 31.5078L36.5881 31.3957L36.6206 31.2835L36.6519 31.1708L36.6819 31.0582L36.711 30.9452L36.7387 30.832L36.7654 30.7189L36.7909 30.6052L36.8151 30.4916L36.8383 30.3779L36.8601 30.2642L36.8809 30.1503L36.9004 30.0359L36.9188 29.9219L36.9361 29.8076L36.9521 29.6932L36.967 29.5791L36.9807 29.4647L36.9932 29.3499L37.0046 29.236L37.0149 29.1211L37.0239 29.0067L37.0317 28.8925L37.0384 28.778L37.0439 28.6637L37.0482 28.5496L37.0514 28.435L37.0534 28.3212L37.0543 28.2069L37.0539 28.093L37.0526 27.9791L37.0499 27.8656L37.0462 27.7519L37.0412 27.6384L37.0352 27.5254L37.028 27.412L37.0196 27.299L37.0103 27.1866L36.9996 27.0738L36.9879 26.9617L36.975 26.8494L36.961 26.7377L36.9459 26.626L36.9297 26.5145L36.9123 26.4035L36.8939 26.2928L36.8744 26.1823L36.8537 26.0722L36.8319 25.962L36.809 25.8526L36.7851 25.7435L36.7601 25.6346L36.7339 25.5258L36.7069 25.418L36.6785 25.3099L36.6493 25.2027L36.6189 25.0956L36.5874 24.9892L36.555 24.8829L36.5214 24.7771L36.4869 24.6719L36.4513 24.5672L36.4145 24.4625L36.377 24.3588L36.3383 24.2552L36.2986 24.1524L36.2579 24.0499L36.2162 23.9477L36.1736 23.8465L36.1298 23.7455L36.0853 23.6452L36.0396 23.5455L35.993 23.4461L35.9454 23.3472L35.897 23.2493L35.8474 23.1516L35.7971 23.0548L35.7458 22.9586L35.6935 22.8625L35.6404 22.7675L35.5863 22.673L35.5313 22.5792L35.4753 22.4858L35.4187 22.3934L35.3609 22.3012L35.3025 22.2101L35.2431 22.1196L35.1828 22.0298L35.1216 21.9404L35.0597 21.852L34.997 21.7644L34.9333 21.6771L34.8689 21.5908L34.8035 21.5052L34.7377 21.4205L34.6707 21.3362L34.6031 21.2529L34.5346 21.1702L34.4655 21.0883L34.3957 21.0074L34.3248 20.9269L34.2535 20.8475L34.1813 20.7687L34.1086 20.691L34.0347 20.6137L33.9606 20.5376L33.8854 20.4619L33.8097 20.3874L33.7335 20.3136L33.6565 20.2406L33.5786 20.1684L33.5002 20.0972L33.4213 20.0269L33.3414 19.9571L33.2615 19.8887L33.1805 19.8207L33.099 19.7538L33.0169 19.6878L32.9342 19.6225L32.851 19.5583L32.7674 19.4951L32.6829 19.4325L32.5977 19.3707L32.5126 19.3103L32.4263 19.2504L32.3401 19.1919L32.2531 19.1339L32.1656 19.0769L32.0775 19.0208L31.9893 18.9658L31.9001 18.9116L31.8109 18.8585L31.7208 18.8061L31.6309 18.755L31.5401 18.7047L31.4489 18.6552L31.3574 18.6068L31.2656 18.5595L31.1733 18.5129L31.0805 18.4673L30.9875 18.4228L30.8944 18.3793L30.8002 18.3366L30.7065 18.2951L30.6121 18.2545L30.5173 18.2148L30.4223 18.1762L30.3272 18.1386L30.2317 18.102L30.1355 18.0662L30.0397 18.0316L29.9432 17.9979L29.8465 17.9652L29.7499 17.9336L29.6529 17.903L29.5559 17.8733L29.4581 17.8445L29.3606 17.817L29.2629 17.7903L29.1649 17.7647L29.0669 17.74L28.9683 17.7163L28.8701 17.6937L28.7718 17.6722L28.673 17.6516L28.5741 17.6319L28.4757 17.6134L28.3766 17.5958L28.2777 17.5792L28.1784 17.5636L28.0797 17.5491L27.9801 17.5354L27.8813 17.523L27.7821 17.5114L27.6829 17.5009L27.5838 17.4914L27.4845 17.4828L27.3856 17.4753L27.2862 17.4688L27.1872 17.4632L27.0885 17.4587L26.989 17.4551L26.8904 17.4525L26.7917 17.451L26.693 17.4505L26.6256 17.4507L26.6767 21.8267L26.7072 21.8268L26.7639 21.8276L26.8207 21.829L26.8776 21.8309L26.9345 21.8336L26.9915 21.8367L27.0486 21.8404L27.1057 21.8448L27.1629 21.8498L27.2201 21.8553L27.2774 21.8615L27.3346 21.8682L27.392 21.8756L27.4493 21.8836L27.5066 21.8922L27.564 21.9015L27.6214 21.9113L27.6786 21.9218L27.736 21.9329L27.7933 21.9445L27.8505 21.9569L27.9078 21.9697L27.965 21.9833L28.0221 21.9975L28.0792 22.0122L28.1362 22.0276L28.1931 22.0436L28.2501 22.0602L28.3069 22.0774L28.3635 22.0953L28.4201 22.1138L28.4767 22.1329L28.533 22.1527L28.5894 22.1729L28.6455 22.1939L28.7015 22.2155L28.7574 22.2376L28.8131 22.2604L28.8687 22.2839L28.9241 22.3079L28.9794 22.3325L29.0345 22.3578L29.0895 22.3837L29.1442 22.4102L29.1987 22.4372L29.2531 22.4649L29.3072 22.4933L29.3611 22.5222L29.4149 22.5517L29.4683 22.5819L29.5216 22.6126L29.5746 22.6439L29.6273 22.6758L29.6799 22.7083L29.7321 22.7415L29.7841 22.7752L29.8358 22.8094L29.8872 22.8443L29.9384 22.8799L29.9893 22.9159L30.0398 22.9525L30.0901 22.9897L30.14 23.0275L30.1896 23.0659L30.2389 23.1048L30.2879 23.1444L30.3365 23.1845L30.3847 23.225L30.4327 23.2663L30.4802 23.308L30.5274 23.3503L30.5743 23.3932L30.6207 23.4367L30.6667 23.4806L30.7123 23.5251L30.7577 23.5702L30.8025 23.6158L30.847 23.6619L30.8911 23.7085L30.9346 23.7557L30.9778 23.8034L31.0206 23.8516L31.063 23.9003L31.1048 23.9496L31.1462 23.9993L31.1872 24.0495L31.2277 24.1003L31.2677 24.1515L31.3072 24.2032L31.3463 24.2555L31.3849 24.3081L31.423 24.3613L31.4605 24.4149L31.4976 24.469L31.5342 24.5236L31.5702 24.5786L31.6057 24.634L31.6408 24.69L31.6752 24.7464L31.7091 24.8031L31.7425 24.8604L31.7753 24.918L31.8076 24.9761L31.8393 25.0346L31.8705 25.0935L31.9011 25.1528L31.9311 25.2125L31.9606 25.2726L31.9894 25.3331L32.0176 25.3941L32.0453 25.4552L32.0723 25.5169L32.0989 25.5789L32.1247 25.6413L32.1499 25.704L32.1745 25.767L32.1985 25.8305L32.2219 25.8942L32.2447 25.9583L32.2667 26.0227L32.2882 26.0874L32.309 26.1524L32.3291 26.2178L32.3487 26.2834L32.3675 26.3494L32.3857 26.4157L32.4033 26.4821L32.4202 26.5489L32.4363 26.616L32.4519 26.6833L32.4667 26.7508L32.4809 26.8187L32.4944 26.8867L32.5071 26.9549L32.5192 27.0235L32.5306 27.0922L32.5414 27.1611L32.5513 27.2303L32.5606 27.2996L32.5691 27.3691L32.577 27.4389L32.5842 27.5088L32.5906 27.5788L32.5963 27.6491L32.6014 27.7195L32.6056 27.79L32.6091 27.8607L32.6119 27.9315L32.6141 28.0025L32.6153 28.0735L32.616 28.1447L32.6158 28.2159L32.615 28.2873L32.6134 28.3588L32.611 28.4303L32.6079 28.5019L32.604 28.5736L32.5994 28.6453L32.5941 28.717L32.5879 28.7889L32.581 28.8608L32.5735 28.9326L32.565 29.0045L32.5559 29.0765L32.5461 29.1485L32.5354 29.2203L32.524 29.2922L32.5118 29.3641L32.4989 29.4359L32.4851 29.5078L32.4707 29.5795L32.4554 29.6513L32.4394 29.7229L32.4227 29.7945L32.4051 29.8661L32.3869 29.9376L32.3679 30.0089L32.348 30.0801L32.3274 30.1512L32.3061 30.2222L32.284 30.2932L32.2611 30.3639L32.2375 30.4346L32.2131 30.5051L32.1879 30.5753L32.1619 30.6455L32.1353 30.7154L32.1079 30.7853L32.0797 30.8549L32.0507 30.9243L32.021 30.9935L31.9905 31.0626L31.9593 31.1313L31.9273 31.1998L31.8945 31.2682L31.8611 31.3362L31.8269 31.4041L31.7919 31.4716L31.7561 31.5389L31.7197 31.6058L31.6825 31.6726L31.6446 31.739L31.6058 31.8052L31.5665 31.8709L31.5263 31.9365L31.4855 32.0017L31.4439 32.0665L31.4015 32.131L31.3585 32.1951L31.3147 32.259L31.2703 32.3224L31.225 32.3855L31.1792 32.4482L31.1326 32.5104L31.0853 32.5723L31.0373 32.6338L30.9886 32.6949L30.9392 32.7556L30.8891 32.8158L30.8384 32.8756L30.7868 32.935L30.7347 32.9939L30.6819 33.0524L30.6285 33.1103L30.5744 33.1678L30.5195 33.225L30.4641 33.2815L30.408 33.3375L30.3513 33.3932L30.2938 33.4482L30.2358 33.5027L30.1771 33.5567L30.1178 33.6103L30.0579 33.6632L29.9974 33.7156L29.9362 33.7674L29.8744 33.8188L29.812 33.8696L29.749 33.9196L29.6855 33.9692L29.6214 34.0183L29.5566 34.0667L29.4913 34.1145L29.4254 34.1616L29.359 34.2084L29.2919 34.2543L29.2243 34.2997L29.1562 34.3443L29.0875 34.3885L29.0183 34.4319L28.9486 34.4747L28.8783 34.5168L28.8075 34.5583L28.7362 34.5991L28.6643 34.6392L28.5921 34.6787L28.5193 34.7174L28.4461 34.7556L28.3722 34.7929L28.2981 34.8296L28.2233 34.8656L28.1481 34.9008L28.0726 34.9353L27.9965 34.9691L27.92 35.0022L27.8431 35.0346L27.7657 35.0661L27.6879 35.0969L27.6097 35.1271L27.5311 35.1564L27.4521 35.185L27.3728 35.2128L27.293 35.2398L27.2129 35.2661L27.1325 35.2915L27.0517 35.3162L26.9704 35.3402L26.8889 35.3633L26.8071 35.3856L26.7249 35.4071L26.6424 35.4278L26.5595 35.4477L26.4765 35.4668L26.393 35.485L26.3094 35.5025L26.2254 35.5191L26.1411 35.5348L26.0567 35.5498L25.9719 35.5639L25.887 35.5771L25.8017 35.5895L25.7163 35.6011L25.6306 35.6119L25.5448 35.6217L25.4587 35.6307L25.3725 35.6389L25.2861 35.6461L25.1994 35.6526L25.1126 35.658L25.0257 35.6628L24.9386 35.6666L24.8514 35.6695L24.764 35.6715L24.6766 35.6726L24.589 35.673L24.5014 35.6724L24.4136 35.6709L24.3257 35.6685L24.2378 35.6652L24.1498 35.661L24.0617 35.6559L23.9736 35.65L23.8855 35.6432L23.7974 35.6354L23.7091 35.6267L23.621 35.6172L23.5328 35.6067L23.4447 35.5953L23.3565 35.583L23.2683 35.5699L23.1802 35.5558L23.0922 35.5408L23.0042 35.525L22.9163 35.5082L22.8285 35.4905L22.7407 35.4719L22.653 35.4524L22.5655 35.4319L22.4781 35.4106L22.3906 35.3884L22.3034 35.3652L22.2165 35.3411L22.1295 35.3162L22.0429 35.2904L21.9562 35.2636L21.8698 35.2359L21.7837 35.2074L21.6976 35.1779L21.6119 35.1476L21.5263 35.1163L21.4409 35.084L21.3559 35.051L21.271 35.0171L21.1864 34.9822L21.1021 34.9465L21.0181 34.9098L20.9343 34.8723L20.8507 34.8339L20.7677 34.7946L20.6847 34.7544L20.6022 34.7134L20.52 34.6714L20.4382 34.6286L20.3567 34.5849L20.2755 34.5404L20.1947 34.495L20.1144 34.4488L20.0343 34.4016L19.9547 34.3536L19.8755 34.3048L19.7968 34.2551L19.7184 34.2045L19.6405 34.1532L19.563 34.1009L19.4859 34.0478L19.4095 33.9939L19.3334 33.9392L19.2577 33.8837L19.1826 33.8272L19.108 33.7701L19.0339 33.7121L18.9603 33.6533L18.8873 33.5937L18.8147 33.5333L18.7427 33.4721L18.6713 33.4101L18.6005 33.3473L18.5302 33.2838L18.4605 33.2194L18.3913 33.1543L18.3227 33.0884L18.2549 33.0218L18.1874 32.9545L18.1208 32.8863L18.0547 32.8174L17.9893 32.7478L17.9245 32.6775L17.8603 32.6064L17.7969 32.5346L17.7341 32.4622L17.672 32.3889L17.6105 32.3151L17.5497 32.2405L17.4897 32.1651L17.4304 32.0892L17.3718 32.0126L17.3138 31.9353L17.2567 31.8573L17.2003 31.7787L17.1447 31.6994L17.0897 31.6194L17.0355 31.5389L16.9822 31.4577L16.9296 31.3759L16.8778 31.2935L16.8267 31.2105L16.7766 31.1269L16.7271 31.0426L16.6785 30.9579L16.6307 30.8725L16.5838 30.7866L16.5376 30.7001L16.4923 30.6131L16.4479 30.5255L16.4042 30.4374L16.3615 30.3488L16.3197 30.2596L16.2786 30.17L16.2385 30.0798L16.1993 29.9891L16.1609 29.8979L16.1234 29.8064L16.0869 29.7142L16.0512 29.6217L16.0165 29.5286L15.9827 29.4352L15.9498 29.3413L15.9178 29.2471L15.8867 29.1524L15.8567 29.0572L15.8275 28.9617L15.7993 28.8659L15.772 28.7696L15.7457 28.6729L15.7205 28.5759L15.696 28.4785L15.6727 28.3808L15.6503 28.2829L15.6288 28.1844L15.6083 28.0858L15.5889 27.9868L15.5704 27.8876L15.5529 27.788L15.5365 27.6882L15.521 27.5882L15.5065 27.4878L15.493 27.3873L15.4807 27.2865L15.4693 27.1855L15.4589 27.0842L15.4495 26.9828L15.4411 26.8812L15.4338 26.7794L15.4275 26.6774L15.4223 26.5753L15.4181 26.473L15.4149 26.3706L15.4128 26.268L15.4118 26.1654L15.4117 26.0626L15.4127 25.9597L15.4149 25.8568L15.4179 25.7537L15.4222 25.6506L15.4274 25.5474L15.4337 25.4442L15.441 25.341L15.4495 25.2377L15.459 25.1344L15.4695 25.0311L15.4811 24.9279L15.4938 24.8246L15.5075 24.7214L15.5224 24.6183L15.5383 24.5151L15.5553 24.4121L15.5733 24.309L15.5923 24.2061L15.6126 24.1033L15.6338 24.0006L15.6561 23.898L15.6794 23.7955L15.7039 23.6933L15.7294 23.5911L15.756 23.4891L15.7837 23.3873L15.8123 23.2857L15.8421 23.1841L15.8729 23.0829L15.9048 22.9819L15.9377 22.881L15.9718 22.7805L16.0069 22.6802L16.043 22.5801L16.0801 22.4803L16.1184 22.3809L16.1577 22.2817L16.1981 22.1827L16.2394 22.0842L16.2818 21.9859L16.3254 21.8879L16.3698 21.7903L16.4154 21.6931L16.4619 21.5963L16.5096 21.4997L16.5582 21.4036L16.6079 21.308L16.6585 21.2127L16.7103 21.1179L16.763 21.0235L16.8167 20.9295L16.8714 20.836L16.9272 20.743L16.9839 20.6504L17.0417 20.5583L17.1005 20.4666L17.1601 20.3755L17.2208 20.285L17.2825 20.1949L17.3451 20.1055L17.4088 20.0166L17.4734 19.9281L17.5389 19.8403L17.6054 19.7531L17.6728 19.6664L17.7413 19.5804L17.8106 19.4949L17.8808 19.4101L17.952 19.3259L18.0241 19.2423L18.0971 19.1594L18.1711 19.0771L18.2459 18.9956L18.3217 18.9147L18.3984 18.8345L18.4759 18.755L18.5543 18.6762L18.6336 18.5981L18.7137 18.5208L18.7947 18.4441L18.8766 18.3682L18.9592 18.2931L19.0427 18.2187L19.1272 18.1452L19.2123 18.0723L19.2984 18.0003L19.3851 17.9292L19.4728 17.8587L19.5611 17.7891L19.6504 17.7204L19.7403 17.6525L19.8311 17.5854L19.9226 17.5192L20.0149 17.4538L20.1079 17.3893L20.2017 17.3256L20.2961 17.2629L20.3913 17.2011L20.4873 17.1402L20.5839 17.0801L20.6813 17.021L20.7792 16.9628L20.8779 16.9056L20.9773 16.8492L21.0773 16.7938L21.1779 16.7395L21.2792 16.686L21.3811 16.6335L21.4837 16.5821L21.5869 16.5315L21.6906 16.482L21.795 16.4335L21.8999 16.3859L22.0054 16.3395L22.1115 16.2939L22.2182 16.2494L22.3253 16.2061L22.433 16.1636L22.5413 16.1223L22.6499 16.0819L22.7592 16.0427L22.869 16.0045L22.9792 15.9674L23.0899 15.9313L23.201 15.8963L23.3127 15.8625L23.4247 15.8297L23.5371 15.7981L23.6501 15.7675L23.7633 15.7379L23.877 15.7095L23.9911 15.6823L24.1056 15.6562L24.2203 15.6311L24.3355 15.6073L24.451 15.5845L24.5089 15.5737ZM25.9282 23.989L24.611 24.3082L24.5336 17.6904L24.4715 17.7045L24.3781 17.7269L24.2847 17.7502L24.192 17.7743L24.0994 17.7993L24.0074 17.8253L23.9154 17.8523L23.8243 17.8799L23.733 17.9086L23.6429 17.938L23.5525 17.9685L23.4626 17.9997L23.3733 18.0319L23.2842 18.0648L23.196 18.0985L23.1079 18.1333L23.0202 18.1687L22.9331 18.205L22.8462 18.2423L22.7603 18.2801L22.6745 18.3191L22.5895 18.3586L22.5046 18.3992L22.4205 18.4403L22.3366 18.4824L22.2536 18.5252L22.171 18.5687L22.0889 18.6131L22.0074 18.6582L21.9264 18.7041L21.8459 18.7508L21.7664 18.7981L21.6867 18.8465L21.6081 18.8953L21.5302 18.9449L21.4527 18.9952L21.3757 19.0463L21.2994 19.0981L21.2238 19.1506L21.1487 19.2037L21.0744 19.2575L21.0005 19.3121L20.9273 19.3674L20.8549 19.4232L20.783 19.4798L20.7119 19.5368L20.6415 19.5947L20.5715 19.6532L20.5023 19.7124L20.4339 19.772L20.3662 19.8324L20.2991 19.8932L20.2327 19.9548L20.167 20.017L20.1021 20.0797L20.0378 20.1429L19.9742 20.2069L19.9114 20.2712L19.8494 20.3362L19.7881 20.4016L19.7273 20.4679L19.6675 20.5343L19.6085 20.6014L19.5501 20.6691L19.4926 20.7371L19.4357 20.8058L19.3798 20.8746L19.3243 20.9444L19.2699 21.0143L19.2161 21.0849L19.1632 21.156L19.1111 21.2272L19.0597 21.299L19.0091 21.3712L18.9593 21.444L18.9103 21.517L18.8622 21.5906L18.8149 21.6643L18.7683 21.7385L18.7225 21.8133L18.6777 21.8881L18.6335 21.9637L18.5903 22.0392L18.5478 22.1153L18.5061 22.1917L18.4654 22.2683L18.4254 22.3453L18.3863 22.4226L18.3479 22.5004L18.3105 22.578L18.2738 22.6564L18.2381 22.7347L18.2032 22.8134L18.169 22.8924L18.1358 22.9717L18.1034 23.0509L18.0719 23.1307L18.0413 23.2106L18.0113 23.2906L17.9824 23.3707L17.9543 23.4513L17.927 23.532L17.9006 23.6128L17.875 23.6937L17.8503 23.7749L17.8264 23.8562L17.8035 23.9374L17.7814 24.019L17.76 24.1007L17.7397 24.1825L17.7201 24.2643L17.7014 24.3462L17.6835 24.4283L17.6666 24.5105L17.6505 24.5925L17.6352 24.6747L17.6208 24.7571L17.6073 24.8393L17.5946 24.9216L17.5827 25.0041L17.5718 25.0863L17.5617 25.1688L17.5525 25.251L17.544 25.3334L17.5365 25.416L17.5297 25.4981L17.5239 25.5804L17.5189 25.6627L17.5146 25.7448L17.5113 25.8269L17.5088 25.9088L17.5072 25.9909L17.5063 26.0727L17.5064 26.1544L17.5072 26.236L17.5089 26.3176L17.5114 26.399L17.5147 26.4802L17.5189 26.5614L17.5239 26.6423L17.5297 26.7231L17.5363 26.8037L17.5438 26.8842L17.552 26.9646L17.561 27.0445L17.5709 27.1246L17.5815 27.2041L17.593 27.2837L17.6053 27.3629L17.6183 27.4419L17.6321 27.5209L17.6467 27.5993L17.6622 27.6777L17.6783 27.7556L17.6953 27.8335L17.713 27.9109L17.7315 27.9882L17.7507 28.0649L17.7709 28.1418L17.7915 28.2179L17.813 28.2941L17.8353 28.3697L17.8583 28.4451L17.8821 28.5201L17.9065 28.5946L17.9318 28.6692L17.9577 28.7431L17.9843 28.8166L18.0117 28.89L18.0398 28.9629L18.0686 29.0353L18.0981 29.1074L18.1281 29.1791L18.1591 29.2505L18.1906 29.3214L18.2229 29.3919L18.2558 29.4619L18.2893 29.5314L18.3237 29.6009L18.3584 29.6695L18.3939 29.7377L18.4302 29.8057L18.4671 29.873L18.5046 29.94L18.5426 30.0065L18.5814 30.0724L18.6208 30.138L18.6607 30.203L18.7013 30.2674L18.7425 30.3315L18.7842 30.3951L18.8266 30.4582L18.8695 30.5205L18.913 30.5826L18.9571 30.644L19.0017 30.7049L19.0471 30.7654L19.0928 30.8252L19.1391 30.8844L19.1859 30.9432L19.2334 31.0015L19.2811 31.059L19.3297 31.1161L19.3786 31.1727L19.428 31.2286L19.4782 31.284L19.5285 31.3386L19.5794 31.3929L19.6309 31.4465L19.6826 31.4994L19.7351 31.5518L19.7879 31.6036L19.8411 31.6549L19.8949 31.7054L19.949 31.7554L20.0037 31.8047L20.0586 31.8534L20.1141 31.9015L20.1698 31.9491L20.2261 31.9959L20.2827 32.0421L20.3399 32.0877L20.3971 32.1325L20.455 32.1768L20.5131 32.2205L20.5717 32.2635L20.6305 32.3058L20.6897 32.3476L20.7493 32.3886L20.8091 32.4289L20.8693 32.4686L20.9297 32.5076L20.9907 32.5461L21.0518 32.5837L21.1131 32.6208L21.175 32.6571L21.2368 32.6927L21.299 32.7277L21.3617 32.7622L21.4245 32.7958L21.4874 32.8287L21.5506 32.8609L21.6143 32.8926L21.6778 32.9234L21.7419 32.9536L21.8061 32.9832L21.8703 33.0119L21.935 33.0401L21.9998 33.0676L22.0646 33.0944L22.1297 33.1204L22.195 33.1457L22.2606 33.1704L22.3259 33.1944L22.3919 33.2177L22.4576 33.2402L22.5235 33.2621L22.5897 33.2833L22.656 33.3038L22.7223 33.3235L22.7887 33.3426L22.8553 33.3609L22.9219 33.3787L22.9886 33.3956L23.0553 33.4119L23.1221 33.4275L23.1889 33.4423L23.2559 33.4566L23.3229 33.47L23.3898 33.4829L23.4568 33.4949L23.5239 33.5064L23.591 33.5171L23.6581 33.5272L23.7249 33.5364L23.792 33.545L23.859 33.553L23.9261 33.5603L23.993 33.5668L24.06 33.5727L24.1269 33.5779L24.1936 33.5824L24.2605 33.5863L24.3271 33.5894L24.3936 33.592L24.4603 33.5937L24.5266 33.5949L24.5929 33.5953L24.6592 33.5951L24.7253 33.5943L24.7914 33.5926L24.8574 33.5904L24.923 33.5877L24.9886 33.5841L25.0543 33.5799L25.1194 33.575L25.1847 33.5696L25.2496 33.5634L25.3145 33.5567L25.3792 33.5492L25.4435 33.5412L25.508 33.5325L25.572 33.5231L25.6358 33.5131L25.6997 33.5026L25.7631 33.4913L25.8263 33.4795L25.8894 33.467L25.9522 33.4539L26.0146 33.4402L26.0768 33.426L26.139 33.411L26.2008 33.3955L26.2623 33.3795L26.3235 33.3628L26.3845 33.3455L26.4454 33.3276L26.5057 33.3091L26.5656 33.2901L26.6257 33.2704L26.6851 33.2503L26.7443 33.2296L26.8032 33.2083L26.8617 33.1864L26.9201 33.1639L26.9781 33.1409L27.0355 33.1174L27.0928 33.0934L27.1497 33.0687L27.2064 33.0436L27.2624 33.018L27.3184 32.9918L27.3738 32.9651L27.4288 32.9379L27.4837 32.9102L27.5378 32.882L27.5919 32.8533L27.6455 32.8239L27.6986 32.7943L27.7513 32.7641L27.8038 32.7334L27.8558 32.7022L27.9072 32.6706L27.9583 32.6385L28.009 32.6059L28.0593 32.573L28.1093 32.5395L28.1586 32.5057L28.2077 32.4712L28.2562 32.4365L28.3042 32.4013L28.3519 32.3656L28.3991 32.3296L28.4458 32.2931L28.4921 32.2562L28.5381 32.2189L28.5833 32.1813L28.6282 32.1433L28.6726 32.1048L28.7165 32.066L28.76 32.0268L28.803 31.9872L28.8455 31.9473L28.8873 31.9071L28.9289 31.8664L28.9699 31.8254L29.0105 31.7841L29.0505 31.7425L29.0899 31.7004L29.1289 31.6582L29.1675 31.6155L29.2054 31.5727L29.243 31.5293L29.2799 31.4858L29.3162 31.4421L29.3523 31.3978L29.3875 31.3535L29.4225 31.3088L29.4569 31.2639L29.4906 31.2187L29.524 31.1732L29.5567 31.1276L29.5889 31.0815L29.6207 31.0352L29.6518 30.989L29.6824 30.9422L29.7126 30.8953L29.7419 30.8483L29.771 30.801L29.7994 30.7535L29.8273 30.7057L29.8547 30.6578L29.8815 30.6097L29.9078 30.5615L29.9335 30.5129L29.9586 30.4645L29.9832 30.4157L30.0073 30.3668L30.0309 30.3178L30.0538 30.2684L30.0762 30.2191L30.0981 30.1696L30.1193 30.1201L30.1401 30.0703L30.1602 30.0206L30.18 29.9704L30.199 29.9206L30.2176 29.8701L30.2354 29.8204L30.2529 29.7698L30.2698 29.7193L30.2861 29.669L30.3018 29.6185L30.317 29.5681L30.3318 29.5171L30.3457 29.4667L30.3594 29.4156L30.3723 29.3653L30.3848 29.3143L30.3967 29.2633L30.408 29.2127L30.4187 29.1621L30.429 29.1109L30.4387 29.0603L30.4479 29.0091L30.4565 28.9586L30.4646 28.9078L30.4721 28.857L30.4791 28.8061L30.4855 28.7553L30.4914 28.7048L30.4968 28.6543L30.5016 28.6035L30.5059 28.553L30.5097 28.5025L30.5129 28.4521L30.5157 28.4018L30.5178 28.3516L30.5194 28.3016L30.5206 28.2513L30.5213 28.2011L30.5214 28.1514L30.5209 28.1017L30.52 28.0521L30.5185 28.0026L30.5166 27.9529L30.5141 27.9041L30.5111 27.8542L30.5077 27.8057L30.5037 27.7569L30.4992 27.7077L30.4942 27.6591L30.4888 27.611L30.4827 27.5622L30.4763 27.5145L30.4694 27.4664L30.4621 27.419L30.4541 27.3711L30.4457 27.3236L30.4369 27.2765L30.4277 27.2296L30.4178 27.1825L30.4075 27.136L30.3969 27.0896L30.3857 27.0434L30.3742 26.9977L30.3619 26.9515L30.3496 26.9063L30.3366 26.8606L30.3232 26.8158L30.3094 26.7709L30.2951 26.7264L30.2803 26.682L30.2651 26.6378L30.2497 26.5942L30.2337 26.5507L30.2173 26.5071L30.2005 26.4642L30.1832 26.4211L30.1657 26.379L30.1475 26.3365L30.1293 26.2947L30.1104 26.2532L30.0912 26.2117L30.0717 26.1706L30.0517 26.1298L30.0313 26.0893L30.0106 26.0492L29.9895 26.0093L29.9681 25.9698L29.9463 25.9305L29.924 25.8915L29.9016 25.8529L29.8787 25.8147L29.8554 25.7766L29.8319 25.7391L29.808 25.7018L29.7838 25.6648L29.7592 25.6281L29.7344 25.5919L29.7091 25.5559L29.6837 25.5203L29.6578 25.485L29.6317 25.4502L29.6054 25.4156L29.5785 25.3813L29.5515 25.3476L29.5242 25.3141L29.4967 25.2809L29.4688 25.2481L29.4408 25.2158L29.4123 25.1838L29.3836 25.1521L29.3547 25.1207L29.3256 25.0899L29.2961 25.0594L29.2664 25.0292L29.2366 24.9995L29.2064 24.9702L29.1761 24.9412L29.1453 24.9124L29.1146 24.8843L29.0835 24.8563L29.0523 24.829L29.0208 24.8019L28.9891 24.7753L28.9573 24.749L28.9253 24.7232L28.893 24.6977L28.8606 24.6725L28.828 24.6479L28.7952 24.6236L28.7622 24.5997L28.7291 24.5763L28.6959 24.5531L28.6625 24.5305L28.6289 24.5083L28.5951 24.4864L28.5614 24.4649L28.5272 24.4438L28.4931 24.4232L28.459 24.403L28.4246 24.3832L28.3899 24.3637L28.3554 24.3447L28.3208 24.3261L28.2859 24.3079L28.2512 24.2901L28.216 24.2726L28.181 24.2557L28.1458 24.2392L28.1106 24.223L28.0753 24.2073L28.0398 24.1918L28.0046 24.177L27.9689 24.1625L27.9333 24.1484L27.8977 24.1347L27.8621 24.1214L27.8264 24.1085L27.7906 24.096L27.7549 24.0838L27.7192 24.0722L27.6833 24.0609L27.6474 24.05L27.6118 24.0395L27.5757 24.0295L27.54 24.0198L27.5041 24.0106L27.4682 24.0016L27.4323 23.9932L27.3966 23.9851L27.3607 23.9774L27.3249 23.9701L27.2893 23.9632L27.2536 23.9567L27.2177 23.9505L27.1823 23.9448L27.1464 23.9395L27.1111 23.9345L27.0754 23.9299L27.04 23.9257L27.0048 23.9219L26.9694 23.9185L26.9342 23.9154L26.899 23.9127L26.8639 23.9104L26.8288 23.9084L26.7938 23.9069L26.7592 23.9058L26.7243 23.9049L26.6897 23.9044L26.6551 23.9043L26.6207 23.9046L26.5863 23.9052L26.5521 23.9061L26.5179 23.9075L26.4841 23.9091L26.4501 23.9112L26.4165 23.9135L26.3829 23.9162L26.3494 23.9193L26.3161 23.9227L26.2827 23.9264L26.2498 23.9305L26.2169 23.9349L26.1842 23.9396L26.1515 23.9447L26.1192 23.9501L26.0869 23.9557L26.055 23.9618L26.0229 23.9681L25.9912 23.9747L25.9595 23.9817L25.9282 23.989Z" fill="#ADADAD"/>
</svg>
